<!DOCTYPE svg PUBLIC "-//W3C//DTD SVG 1.1//EN" "http://www.w3.org/Graphics/SVG/1.1/DTD/svg11.dtd">
<!-- Uploaded to: SVG Repo, www.svgrepo.com, Transformed by: SVG Repo Mixer Tools -->
<svg height="800px" width="800px" version="1.1" id="Layer_1" xmlns="http://www.w3.org/2000/svg" xmlns:xlink="http://www.w3.org/1999/xlink" viewBox="0 0 512.001 512.001" xml:space="preserve" fill="#3a88fe" stroke="#3a88fe">
<g id="SVGRepo_bgCarrier" stroke-width="0"/>
<g id="SVGRepo_tracerCarrier" stroke-linecap="round" stroke-linejoin="round"/>
<g id="SVGRepo_iconCarrier"> <path style="fill:#02b5c4;" d="M324.664,284.419c1.526,7.723,2.335,15.833,2.335,24.194c0,52.215-31.621,94.543-70.622,94.543 h-0.752c-39.002,0-70.622-42.328-70.622-94.543c0-8.361,0.808-16.471,2.335-24.194c1.436-7.268,3.497-14.193,6.105-20.663 c1.936-4.807,4.18-9.363,6.686-13.612c43.968,29.616,87.812,18.783,111.743,0C317.761,260.135,322.17,271.752,324.664,284.419z"/> <path style="fill:#02D1C4;" d="M302.84,237.421c3.303,3.85,6.322,8.11,9.033,12.724c-23.931,18.783-67.775,29.616-111.743,0 c2.711-4.614,5.73-8.873,9.033-12.724c8.759-10.263,19.433-17.667,31.211-21.13c4.91-1.458,10.012-2.221,15.252-2.221h0.752 c5.627,0,11.095,0.877,16.335,2.552C284.068,220.21,294.354,227.477,302.84,237.421z"/> <path d="M472.278,397.142c1.999,3.202,5.435,4.96,8.951,4.96c1.907,0,3.837-0.518,5.572-1.601c4.938-3.083,6.441-9.586,3.359-14.523 l-52.022-83.323c-1.486-2.381-3.862-4.071-6.599-4.695l-98.077-22.346c-0.509-2.014-1.067-4.001-1.666-5.963l99.549-41.288 c3.15-1.307,5.473-4.057,6.236-7.381l27.338-119.216c1.301-5.674-2.244-11.329-7.918-12.63c-5.683-1.303-11.33,2.244-12.63,7.918 l-26.123,113.917l-94.374,39.141c-0.931-1.799-1.891-3.577-2.913-5.31c-0.044-0.076-0.093-0.148-0.138-0.223 c-0.02-0.033-0.04-0.065-0.06-0.098c-1.211-2.045-2.489-4.018-3.809-5.934l75.598-71.89c2.023-1.924,3.199-4.571,3.272-7.362 l3.895-148.478c0.154-5.819-4.441-10.661-10.259-10.814C389.364,0.001,389.27,0,389.176,0c-5.693,0-10.383,4.54-10.531,10.264 l-3.781,144.121l-71.73,68.211c-4.909-4.465-10.195-8.211-15.734-11.162l13.279-25.01c2.73-5.142,0.775-11.523-4.367-14.252 c-5.14-2.731-11.523-0.776-14.252,4.367l-14.83,27.929c-3.582-0.616-7.209-0.938-10.855-0.938h-0.752 c-3.252,0-6.494,0.255-9.698,0.746l-14.732-27.739c-2.73-5.142-9.112-7.096-14.253-4.365c-5.142,2.73-7.095,9.112-4.366,14.253 l13.011,24.498c-5.906,3.028-11.523,6.948-16.717,11.674l-71.732-68.213l-3.78-144.121c-0.152-5.819-4.971-10.417-10.814-10.26 c-5.819,0.153-10.413,4.994-10.259,10.814l3.895,148.478c0.073,2.79,1.25,5.438,3.272,7.362l75.598,71.89 c-1.39,2.017-2.735,4.09-4,6.242c-1.023,1.735-1.991,3.529-2.929,5.347l-94.366-39.161L67.632,97.056 c-1.302-5.675-6.959-9.222-12.63-7.918c-5.674,1.301-9.219,6.956-7.918,12.63l27.338,119.215c0.762,3.323,3.085,6.073,6.234,7.379 l99.537,41.308c-0.6,1.96-1.155,3.942-1.664,5.946l-98.065,22.344c-2.737,0.624-5.113,2.314-6.599,4.695l-52.022,83.323 c-3.083,4.938-1.579,11.441,3.359,14.523c1.736,1.084,3.666,1.601,5.572,1.601c3.515,0,6.953-1.758,8.951-4.96l49.698-79.603 l85.446-19.468c-0.268,3.493-0.407,7.012-0.407,10.543c0,0.942,0.033,1.877,0.052,2.816l-60.408,37.188 c-2.668,1.642-4.467,4.387-4.91,7.489L88.693,499.971c-0.82,5.763,3.184,11.1,8.948,11.922c0.505,0.072,1.006,0.108,1.501,0.108 c5.162,0,9.672-3.797,10.423-9.054l19.805-138.968l47.597-29.302c3.436,17.6,10.34,33.796,20.277,47.099 c15.378,20.586,36.112,31.923,58.382,31.923c5.821,0,10.541-4.719,10.541-10.541c0-5.822-4.72-10.541-10.541-10.541 c-33.13,0-60.082-37.683-60.082-84.002c0-7.529,0.719-14.981,2.136-22.152c1.29-6.53,3.153-12.843,5.541-18.766 c0.362-0.898,0.744-1.783,1.131-2.666c16.87,9.235,34.851,14.025,52.849,14.025c2.349,0,4.7-0.081,7.047-0.245 c15.536-1.081,30.629-5.728,43.622-13.279c2.825,6.525,4.994,13.523,6.453,20.933c1.418,7.169,2.136,14.622,2.136,22.15 c0,23.272-7.089,45.75-19.448,61.671c-3.57,4.599-2.736,11.22,1.864,14.79c4.598,3.571,11.219,2.735,14.79-1.863 c10.54-13.576,17.834-30.275,21.39-48.527l47.58,29.291l19.805,138.968c0.75,5.259,5.26,9.054,10.423,9.054 c0.495,0,0.996-0.035,1.501-0.108c5.764-0.821,9.769-6.159,8.948-11.922l-20.503-143.864c-0.443-3.102-2.242-5.847-4.91-7.489 l-60.409-37.188c0.019-0.938,0.053-1.873,0.053-2.815c0-3.531-0.14-7.05-0.407-10.543l85.446,19.468L472.278,397.142z M215.056,246.862c0.694-0.89,1.402-1.757,2.124-2.597c7.579-8.879,16.627-15.056,26.195-17.868 c3.988-1.185,8.109-1.785,12.25-1.785h0.752c4.45,0,8.867,0.69,13.159,2.062c9.202,2.908,17.946,8.991,25.304,17.612 c0.834,0.972,1.644,1.988,2.443,3.029C277.178,259.031,246.875,264.087,215.056,246.862z"/> <path d="M279.108,386.304c-0.377,0.218-0.757,0.431-1.137,0.64c-0.273,0.148-0.546,0.294-0.819,0.437 c-5.158,2.701-7.149,9.07-4.448,14.228c1.883,3.596,5.551,5.653,9.346,5.653c1.647,0,3.319-0.388,4.88-1.205 c0.376-0.197,0.752-0.397,1.126-0.602c0.002-0.001,0.004-0.003,0.006-0.004c0.002-0.001,0.004-0.002,0.006-0.003 c0.537-0.293,1.073-0.593,1.603-0.901c5.037-2.918,6.755-9.366,3.839-14.404C290.595,385.107,284.145,383.386,279.108,386.304z"/> </g>
</svg>