<svg version="1.2" xmlns="http://www.w3.org/2000/svg" viewBox="0 0 1000 458" width="1000" height="458">
	<defs>
		<linearGradient id="g1" x2="1" gradientUnits="userSpaceOnUse" gradientTransform="matrix(13.844,194.855,-136.834,9.722,740.343,224.13)">
			<stop offset="0" stop-color="#00dbbe"/>
			<stop offset="1" stop-color="#1888fa"/>
		</linearGradient>
		<linearGradient id="g2" x2="1" gradientUnits="userSpaceOnUse" gradientTransform="matrix(197.032,395.921,-216.413,107.699,453.553,7.64)">
			<stop offset="0" stop-color="#00dbbe"/>
			<stop offset="1" stop-color="#1888fa"/>
		</linearGradient>
		<linearGradient id="g3" x2="1" gradientUnits="userSpaceOnUse" gradientTransform="matrix(-12.899,292.641,-225.802,-9.953,309.154,93.117)">
			<stop offset="0" stop-color="#00dbbe"/>
			<stop offset="1" stop-color="#1888fa"/>
		</linearGradient>
	</defs>
	<style>
		tspan { white-space:pre } 
		.s0 { fill: url(#g1) } 
		.s1 { fill: url(#g2) } 
		.s2 { fill: url(#g3) } 
	</style>
	<g id="Layer 6">
		<g id="&lt;Group&gt;">
			<g id="&lt;Group&gt;">
				<path id="&lt;Mesh&gt;" class="s0" d="m740.35 224.02q-1.55 15.38-1.55 15.38c0 0 20.61 1.12 30.87 2.16q0 0 1.55-15.39c-10.26-1.03-30.87-2.15-30.87-2.15zm30.87 2.15q-1.55 15.39-1.55 15.39 13.12 0.91 26.23 1.83 0 0 0.69-15.45-12.69-0.89-25.37-1.77zm25.37 1.77q-0.69 15.45-0.69 15.45 0.02 0 0.04 0 0 0 0.69-15.45-0.02 0-0.04 0zm0.04 0q-0.69 15.45-0.69 15.45 7.68 0.22 15.36 0.43 0 0 0.21-15.46-7.44-0.21-14.88-0.42zm14.88 0.42q-0.21 15.46-0.21 15.46 0.02 0 0.04 0 0 0 0.2-15.46-0.02 0-0.03 0zm0.03 0q-0.2 15.46-0.2 15.46 9.77-0.13 19.55-0.26 0 0-0.61-15.45-9.37 0.12-18.74 0.25zm18.74-0.25q0.61 15.45 0.61 15.45 0.02 0 0.04 0 0 0-0.61-15.45-0.02 0-0.04 0zm0.04 0q0.61 15.45 0.61 15.45c14.42-0.59 28.65-2.38 42.25-5.85q0 0-3.81-14.99c-12.35 3.15-25.51 4.83-39.05 5.39zm39.05-5.39q3.81 14.99 3.81 14.99 0.02-0.01 0.04-0.01 0 0-3.82-14.99-0.02 0.01-0.03 0.01zm0.03-0.01q3.82 14.99 3.82 14.99c16.89-4.29 32.62-11.23 45.49-21.47q0 0-9.61-12.12c-10.79 8.58-24.35 14.7-39.7 18.6zm39.7-18.6q9.61 12.12 9.61 12.12 0.02-0.01 0.03-0.02 0 0-9.62-12.11zm0.03-0.02q9.61 12.11 9.61 12.11c10.84-8.57 19.48-19.2 25.36-31.49q0 0-13.93-6.7c-4.91 10.19-11.87 18.8-21.04 26.08zm21.04-26.08q13.93 6.7 13.93 6.7 0.01-0.01 0.02-0.03 0 0-13.94-6.7zm0.01-0.02q13.94 6.7 13.94 6.7c6.24-12.96 8.98-27.77 8.97-43.1q0 0-15.47 0c0.01 13.58-2.4 25.94-7.44 36.4zm7.44-36.4q15.47 0 15.47 0 0-0.02 0-0.03 0 0-15.47 0 0 0.01 0 0.03zm0-0.03q15.47 0 15.47 0c0.01-13.34-2.43-26.23-7.69-37.86q0 0-14.1 6.35c4.26 9.44 6.32 19.98 6.32 31.51zm-6.32-31.51q14.1-6.35 14.1-6.35-0.01-0.02-0.01-0.03 0 0-14.1 6.36zm-0.01-0.03q14.09-6.36 14.09-6.36c-5.1-11.37-12.91-21.21-22.87-29.24q0 0-9.73 12.03c8.31 6.72 14.38 14.44 18.51 23.57zm-18.51-23.57q9.73-12.03 9.73-12.03-0.01-0.01-0.03-0.02 0 0-9.72 12.03zm-22.82-11.74c9.26 3.1 16.96 7.01 22.8 11.72q9.72-12.02 9.72-12.02c-7.7-6.21-17.17-10.86-27.6-14.36-10.43-3.49-21.72-5.88-33.27-7.75q0 0-2.45 15.27c11.03 1.78 21.56 4.04 30.8 7.14zm-30.8-7.14q2.45-15.27 2.45-15.27-0.02-0.01-0.04-0.01 0 0-2.44 15.27 0.02 0.01 0.03 0.01zm-0.03-0.01q2.44-15.27 2.44-15.27c-16.75-2.7-33-4.64-48.99-4.45q0 0 0.18 15.47c14.66-0.18 29.94 1.6 46.37 4.25zm-46.37-4.25q-0.18-15.47-0.18-15.47-0.02 0-0.04 0 0 0 0.19 15.47 0.01 0 0.03 0zm-33.06 1.01q5.49-0.24 10.98-0.47c7.33-0.27 14.73-0.45 22.05-0.54q-0.19-15.47-0.19-15.47c-7.46 0.1-14.96 0.28-22.42 0.55q-5.6 0.24-11.19 0.48-5.39 0.31-10.78 0.61 0 0 1.38 15.41 5.08-0.29 10.17-0.57zm-10.17 0.57q-1.38-15.41-1.38-15.41-0.02 0-0.03 0 0 0 1.38 15.41zm-0.02 0q-1.39-15.41-1.39-15.41-7.62 0.89-15.24 1.77 0 0 15.5 13.78 0.56-0.07 1.13-0.14zm-1.13 0.14q-15.5-13.78-15.5-13.78l-0.02 0.01q0 0 15.52 13.77zm0 0q-15.52-13.77-15.52-13.77 0.67 183.85 1.34 367.71 0 0 15.47-0.06-0.65-176.94-1.29-353.88zm1.29 353.88q-15.47 0.06-15.47 0.06c0.04 10.31 0.11 30.93 0.11 30.93q0 0 15.47-0.06c0 0-0.08-20.62-0.11-30.93zm-30.87-179.51q-0.77 7.69-1.55 15.38c0 0 20.61 1.13 30.87 2.16q0.78-7.69 1.55-15.39c-10.26-1.03-30.87-2.15-30.87-2.15zm30.87 2.15q-0.77 7.7-1.55 15.39 13.55 0.95 27.1 1.9 0.35-7.73 0.69-15.45-13.12-0.92-26.24-1.84zm26.24 1.84q-0.34 7.72-0.69 15.45 0.02 0 0.04 0 0.34-7.73 0.69-15.45-0.02 0-0.04 0zm0.04 0q-0.35 7.72-0.69 15.45 7.92 0.22 15.83 0.44 0.11-7.73 0.21-15.46-7.68-0.22-15.35-0.43zm15.35 0.43q-0.1 7.73-0.21 15.46 0.02 0 0.04 0 0.11-7.73 0.21-15.46-0.02 0-0.04 0zm0.04 0q-0.1 7.73-0.21 15.46 10.19-0.13 20.38-0.27-0.3-7.73-0.61-15.45-9.78 0.13-19.56 0.26zm19.56-0.26q0.31 7.72 0.61 15.45 0.02 0 0.04 0-0.31-7.73-0.61-15.46-0.02 0-0.04 0.01zm0.04-0.01q0.3 7.73 0.61 15.46c15.31-0.63 30.6-2.53 45.45-6.32q-1.9-7.49-3.81-14.99c-13.6 3.47-27.83 5.27-42.25 5.85zm42.25-5.85q1.91 7.5 3.81 14.99 0.02 0 0.04-0.01-1.91-7.49-3.82-14.99-0.02 0.01-0.03 0.01zm0.03-0.01q1.91 7.5 3.82 14.99c18.44-4.68 36.32-12.44 51.29-24.34q-4.81-6.06-9.61-12.11c-12.88 10.23-28.6 17.18-45.5 21.46zm45.5-21.46q4.8 6.05 9.61 12.11 0.01-0.01 0.03-0.02-4.81-6.06-9.62-12.11-0.01 0.01-0.02 0.02zm0.02-0.02q4.81 6.05 9.62 12.11c12.5-9.86 22.82-22.52 29.68-36.9q-6.97-3.35-13.93-6.7c-5.89 12.28-14.53 22.92-25.37 31.49zm25.37-31.49q6.96 3.35 13.93 6.7 0.01-0.02 0.02-0.04-6.97-3.35-13.94-6.7-0.01 0.02-0.01 0.04zm0.01-0.04q6.97 3.35 13.94 6.7c7.45-15.45 10.51-32.72 10.5-49.79q-7.74 0-15.47 0c0.01 15.33-2.73 30.14-8.97 43.09zm8.97-43.09q7.73 0 15.47 0 0-0.02 0-0.04-7.74 0-15.47 0 0 0.02 0 0.04zm0-0.04q7.73 0 15.47 0c0.02-15.14-2.8-30.38-9.06-44.21q-7.05 3.18-14.1 6.36c5.26 11.63 7.7 24.52 7.69 37.85zm-7.69-37.85q7.05-3.18 14.1-6.36-0.01-0.02-0.02-0.03-7.05 3.18-14.1 6.36 0.01 0.01 0.02 0.03zm-0.02-0.03q7.05-3.18 14.1-6.36c-6.08-13.62-15.63-25.59-27.24-34.91q-4.87 6.02-9.73 12.03c9.96 8.02 17.77 17.86 22.87 29.24zm-22.87-29.24q4.86-6.01 9.73-12.03-0.02-0.01-0.04-0.02-4.86 6.01-9.72 12.03 0.02 0.01 0.03 0.02zm-27.63-14.37c10.43 3.49 19.9 8.14 27.6 14.35q4.86-6.02 9.72-12.03c-9.56-7.71-20.79-13.1-32.39-16.98-11.63-3.9-23.67-6.41-35.76-8.37q-1.22 7.63-2.44 15.27c11.56 1.87 22.84 4.26 33.27 7.76zm-33.27-7.76q1.22-7.64 2.44-15.27-0.02-0.01-0.04-0.01-1.22 7.64-2.44 15.27 0.02 0.01 0.04 0.01zm-0.04-0.01q1.22-7.63 2.44-15.27c-17.06-2.75-34.3-4.85-51.61-4.64q0.09 7.73 0.18 15.46c15.99-0.19 32.24 1.75 48.99 4.45zm-48.99-4.45q-0.09-7.73-0.18-15.46-0.02 0-0.04 0 0.09 7.73 0.18 15.46 0.02 0 0.04 0zm-33.65 1.04q5.59-0.24 11.19-0.49c7.46-0.27 14.96-0.45 22.42-0.55q-0.09-7.73-0.18-15.46c-15.21 0.2-30.41 0.72-45.59 1.7q0.69 7.7 1.38 15.4 5.39-0.3 10.78-0.6zm-10.78 0.6q-0.69-7.7-1.38-15.4-0.02 0-0.04 0 0.7 7.7 1.39 15.4 0.02 0 0.03 0zm-0.03 0q-0.69-7.7-1.39-15.4-14.67 1.7-29.34 3.4 7.74 6.89 15.49 13.77 7.62-0.88 15.24-1.77zm-15.24 1.77q-7.75-6.88-15.49-13.77-0.02 0-0.04 0 7.75 6.89 15.51 13.78zm-0.02 0q-7.76-6.89-15.51-13.77 0.69 190.77 1.39 381.53 7.73-0.02 15.46-0.05-0.67-183.86-1.34-367.71zm1.34 367.71q-7.73 0.03-15.46 0.05c0.03 10.32 0.11 30.94 0.11 30.94q7.73-0.03 15.46-0.06c0 0-0.07-20.62-0.11-30.93zm-16.95-164.18q-0.78 7.69-1.55 15.38c0 0 20.61 1.13 30.87 2.16q0.77-7.69 1.55-15.39c-10.26-1.03-30.87-2.15-30.87-2.15zm30.87 2.15q-0.78 7.7-1.55 15.39 13.98 0.98 27.96 1.96 0.35-7.73 0.69-15.45-13.55-0.95-27.1-1.9zm27.1 1.9q-0.34 7.72-0.69 15.45 0.02 0 0.04 0 0.35-7.72 0.69-15.45-0.02 0-0.04 0zm0.04 0q-0.34 7.73-0.69 15.45 8.16 0.23 16.31 0.46 0.11-7.73 0.21-15.46-7.91-0.23-15.83-0.45zm15.83 0.45q-0.1 7.73-0.21 15.46 0.02 0 0.04 0 0.11-7.73 0.21-15.46-0.02 0-0.04 0zm0.04 0q-0.1 7.73-0.21 15.46 10.6-0.14 21.21-0.29-0.31-7.72-0.62-15.45-10.19 0.14-20.38 0.28zm20.38-0.28q0.31 7.73 0.62 15.45 0.02 0 0.04 0-0.31-7.72-0.62-15.45-0.02 0-0.04 0zm0.04 0q0.31 7.73 0.62 15.45c16.18-0.66 32.54-2.68 48.65-6.78q-1.91-7.49-3.82-14.99c-14.85 3.79-30.14 5.7-45.45 6.32zm45.45-6.32q1.91 7.5 3.82 14.99 0.02 0 0.04-0.01-1.91-7.49-3.82-14.99-0.02 0.01-0.04 0.01zm0.04-0.01q1.91 7.5 3.82 14.99c19.99-5.07 40.03-13.66 57.08-27.21q-4.81-6.06-9.61-12.12c-14.97 11.9-32.85 19.66-51.29 24.34zm51.29-24.34q4.8 6.06 9.61 12.12 0.02-0.01 0.04-0.03-4.81-6.05-9.62-12.11-0.02 0.01-0.03 0.02zm0.03-0.02q4.81 6.06 9.62 12.11c14.16-11.14 26.15-25.82 34-42.3q-6.97-3.35-13.94-6.71c-6.86 14.38-17.18 27.04-29.68 36.9zm29.68-36.9q6.97 3.36 13.94 6.71 0.01-0.02 0.02-0.04-6.97-3.35-13.94-6.7-0.01 0.01-0.02 0.03zm0.02-0.03q6.97 3.35 13.94 6.7c8.65-17.95 12.04-37.68 12.02-56.49q-7.73 0-15.47-0.01c0.02 17.07-3.04 34.34-10.49 49.8zm10.49-49.8q7.74 0.01 15.47 0.01 0-0.03 0-0.05-7.73 0-15.47 0 0 0.02 0 0.04zm0-0.04q7.74 0 15.47 0c0.04-16.94-3.15-34.53-10.42-50.56q-7.05 3.18-14.1 6.36c6.26 13.83 9.08 29.06 9.05 44.2zm-9.05-44.2q7.05-3.18 14.1-6.36-0.01-0.02-0.02-0.04-7.05 3.18-14.1 6.36 0.01 0.02 0.02 0.04zm-0.02-0.04q7.05-3.18 14.1-6.36c-7.07-15.86-18.35-29.95-31.62-40.57q-4.86 6.01-9.72 12.03c11.61 9.32 21.15 21.28 27.24 34.9zm-27.24-34.9q4.86-6.02 9.72-12.03-0.02-0.01-0.03-0.03-4.87 6.02-9.73 12.03 0.02 0.01 0.04 0.03zm-32.43-17.01c11.6 3.89 22.83 9.27 32.39 16.98q4.86-6.01 9.73-12.03c-11.43-9.2-24.43-15.33-37.19-19.61-12.83-4.29-25.63-6.93-38.25-8.98q-1.22 7.63-2.44 15.27c12.09 1.96 24.13 4.48 35.76 8.37zm-35.76-8.37q1.22-7.64 2.44-15.27-0.02-0.01-0.04-0.01-1.22 7.64-2.44 15.27 0.02 0.01 0.04 0.01zm-0.04-0.01q1.22-7.63 2.44-15.27c-17.38-2.8-35.6-5.05-54.24-4.83q0.1 7.73 0.19 15.46c17.31-0.2 34.55 1.89 51.61 4.64zm-51.61-4.64q-0.09-7.73-0.19-15.46-0.02 0-0.04 0 0.09 7.73 0.19 15.46 0.02 0 0.04 0zm-0.04 0q-0.1-7.73-0.19-15.46c-7.74 0.1-15.45 0.28-23.18 0.57q-5.8 0.25-11.6 0.5-2.9 0.15-5.81 0.31-3.09 0.19-6.19 0.38 0.69 7.7 1.38 15.4c15.18-0.97 30.38-1.5 45.59-1.7zm-45.59 1.7q-0.69-7.7-1.38-15.4-0.02 0-0.04 0 0.69 7.7 1.38 15.4 0.02 0 0.04 0zm-0.04 0q-0.69-7.7-1.38-15.4-21.73 2.51-43.46 5.03 7.75 6.88 15.5 13.77 14.67-1.7 29.34-3.4zm-29.34 3.4q-7.75-6.89-15.5-13.77-0.03 0-0.06 0 7.76 6.89 15.52 13.78 0.02-0.01 0.04-0.01zm-0.04 0.01q-7.76-6.89-15.52-13.78 0.72 197.69 1.44 395.37 7.73-0.03 15.47-0.06-0.7-190.76-1.39-381.53zm1.39 381.53q-7.74 0.03-15.47 0.06c0.04 10.31 0.11 30.93 0.11 30.93q7.74-0.03 15.47-0.05c0 0-0.08-20.62-0.11-30.94zm-3.04-148.85q0 0-1.55 15.39c0 0 20.61 1.13 30.87 2.16q1.55-15.39 1.55-15.39c-10.26-1.03-30.87-2.16-30.87-2.16zm30.87 2.16q0 0-1.55 15.39 14.41 1.01 28.83 2.02 0.68-15.45 0.68-15.45-13.98-0.98-27.96-1.96zm27.96 1.96q0 0-0.68 15.45 0.02 0 0.04 0 0.68-15.45 0.68-15.45-0.02 0-0.04 0zm0.04 0q0 0-0.68 15.45 8.39 0.24 16.78 0.48 0.21-15.47 0.21-15.47-8.15-0.23-16.31-0.46zm16.31 0.46q0 0-0.21 15.47 0.02 0 0.04 0 0.21-15.47 0.21-15.47-0.02 0-0.04 0zm0.04 0q0 0-0.21 15.47 11.02-0.15 22.03-0.3-0.61-15.46-0.61-15.46-10.61 0.15-21.21 0.29zm21.21-0.29q0 0 0.61 15.46 0.02 0 0.05 0-0.62-15.46-0.62-15.46-0.02 0-0.04 0zm0.04 0q0 0 0.62 15.46c17.06-0.7 34.48-2.83 51.85-7.25q-3.82-14.99-3.82-14.99c-16.11 4.1-32.47 6.12-48.65 6.78zm48.65-6.78q0 0 3.82 14.99 0.02-0.01 0.04-0.01-3.82-14.99-3.82-14.99-0.02 0.01-0.04 0.01zm0.04-0.01q0 0 3.82 14.99c10.79-2.76 21.7-6.45 32.33-11.38 10.62-4.92 21.02-11.15 30.54-18.7q-9.61-12.12-9.61-12.12c-17.05 13.55-37.09 22.14-57.08 27.21zm57.08-27.21q0 0 9.61 12.12 0.02-0.02 0.04-0.03-9.61-12.12-9.61-12.12-0.02 0.02-0.04 0.03zm0.04-0.03q0 0 9.61 12.12c7.88-6.25 15.31-13.5 21.8-21.55 6.51-8.05 12.07-16.91 16.52-26.17q-13.93-6.7-13.93-6.7c-7.85 16.48-19.84 31.16-34 42.3zm34-42.3q0 0 13.93 6.7 0.02-0.02 0.03-0.04-13.94-6.7-13.94-6.7-0.01 0.02-0.02 0.04zm0.02-0.04q0 0 13.94 6.7c4.89-10.19 8.34-20.9 10.49-31.57 2.16-10.67 3.05-21.29 3.06-31.62q-15.47 0-15.47 0c0.02 18.81-3.37 38.54-12.02 56.49zm12.02-56.49q0 0 15.47 0 0-0.02 0-0.05-15.47 0-15.47 0 0 0.02 0 0.05zm0-0.05q0 0 15.47 0c0.05-18.75-3.52-38.69-11.79-56.91q-14.1 6.35-14.1 6.35c7.27 16.03 10.46 33.62 10.42 50.56zm-10.42-50.56q0 0 14.1-6.35-0.01-0.03-0.02-0.05-14.1 6.36-14.1 6.36 0.01 0.02 0.02 0.04zm-0.02-0.04q0 0 14.1-6.36c-4.06-9.02-9.28-17.65-15.42-25.45-6.12-7.8-13.15-14.79-20.57-20.78q-9.73 12.02-9.73 12.02c13.27 10.62 24.55 24.71 31.62 40.57zm-31.62-40.57q0 0 9.73-12.02-0.02-0.02-0.04-0.04-9.72 12.03-9.72 12.03 0.01 0.02 0.03 0.03zm-37.22-19.64c12.76 4.28 25.76 10.41 37.19 19.61q0 0 9.72-12.03c-6.6-5.31-13.68-9.76-20.76-13.38-7.1-3.64-14.22-6.51-21.23-8.86-14.02-4.69-27.57-7.45-40.73-9.59q-2.44 15.27-2.44 15.27c12.62 2.05 25.42 4.69 38.25 8.98zm-38.25-8.98q0 0 2.44-15.27-0.02-0.01-0.04-0.01-2.44 15.27-2.44 15.27 0.02 0 0.04 0.01zm-0.04-0.01q0 0 2.44-15.27c-17.69-2.85-36.9-5.26-56.86-5.03q0.18 15.47 0.18 15.47c18.64-0.22 36.86 2.03 54.24 4.83zm-54.24-4.83q0 0-0.18-15.47-0.02 0-0.04 0 0.18 15.47 0.18 15.47 0.02 0 0.04 0zm-40.63 1.38q2.91-0.16 5.81-0.31 5.8-0.25 11.6-0.5c7.73-0.29 15.44-0.47 23.18-0.57q0 0-0.18-15.47c-7.89 0.11-15.69 0.29-23.57 0.58q-5.9 0.25-11.8 0.51-2.96 0.16-5.92 0.31-3.34 0.21-6.69 0.42 1.38 15.41 1.38 15.41 3.1-0.19 6.19-0.38zm-6.19 0.38q0 0-1.38-15.41-0.02 0-0.05 0.01 1.39 15.4 1.39 15.4 0.02 0 0.04 0zm-0.04 0q0 0-1.39-15.4-28.78 3.32-57.57 6.65 15.5 13.78 15.5 13.78 21.73-2.52 43.46-5.03zm-43.46 5.03q0 0-15.5-13.78-0.04 0.01-0.07 0.01 15.51 13.77 15.51 13.77 0.03 0 0.06 0zm-0.06 0q0 0-15.51-13.77 0.74 204.6 1.48 409.2 15.47-0.06 15.47-0.06-0.72-197.68-1.44-395.37zm1.44 395.37q0 0-15.47 0.06c0.04 10.31 0.12 30.93 0.12 30.93q15.46-0.06 15.46-0.06c0 0-0.07-20.62-0.11-30.93z"/>
			</g>
		</g>
		<g id="&lt;Group&gt;">
			<g id="&lt;Group&gt;">
				<path id="&lt;Mesh&gt;" class="s1" d="m453.55 7.64q-15.46 0-15.46 0c0 0 0 20.62 0 30.93q0 0 15.46 0c0-10.31 0-30.93 0-30.93zm0 30.93q-15.46 0-15.46 0 0 182.49 0 364.98 0 0 15.46-15.46 0-174.76 0-349.52zm0 349.52q-15.46 15.46-15.46 15.46v0.01h0.01q0 0 15.45-15.47zm0 0q-15.45 15.47-15.45 15.47 106.24 0 212.49 0 0 0 0-15.47-98.52 0-197.04 0zm197.04 0q0 15.47 0 15.47c10.31 0 30.93 0 30.93 0q0 0 0-15.47c0 0-20.62 0-30.93 0zm-212.5-380.45q-7.74 0-15.47 0c0 0 0 20.62 0 30.93q7.73 0 15.47 0c0-10.31 0-30.93 0-30.93zm0 30.93q-7.74 0-15.47 0 0 190.22 0 380.44 7.73-7.73 15.47-15.46 0-182.49 0-364.98zm0 364.99v-0.01q-7.74 7.73-15.47 15.46v0.02h0.02q7.73-7.74 15.46-15.47zm0.01 0q-7.73 7.73-15.46 15.47 113.97 0 227.95 0 0-7.74 0-15.47-106.25 0-212.49 0zm212.49 0q0 7.73 0 15.47c10.31 0 30.93 0 30.93 0q0-7.74 0-15.47c0 0-20.62 0-30.93 0zm-227.97-395.92q-7.73 0-15.46 0c0 0 0 20.62 0 30.93q7.73 0 15.46 0c0-10.31 0-30.93 0-30.93zm0 30.93q-7.73 0-15.46 0 0 197.95 0 395.89 7.73-7.73 15.46-15.45 0-190.22 0-380.44zm0 380.46v-0.02q-7.73 7.72-15.46 15.45v0.03h0.03q7.72-7.73 15.45-15.46zm0.02 0q-7.73 7.73-15.45 15.46 121.7 0 243.4 0 0-7.73 0-15.46-113.98 0-227.95 0zm227.95 0q0 7.73 0 15.46c10.31 0 30.93 0 30.93 0q0-7.73 0-15.46c0 0-20.62 0-30.93 0zm-243.43-411.39q0 0-15.47 0c0 0 0 20.62 0 30.93q15.47 0 15.47 0c0-10.31 0-30.93 0-30.93zm0 30.93q0 0-15.47 0 0 205.67 0 411.35 15.47-15.46 15.47-15.46 0-197.94 0-395.89zm0 395.92v-0.03q0 0-15.47 15.46 0 0.02 0 0.04 0.02 0 0.04 0 15.46-15.47 15.46-15.47zm0.03 0q0 0-15.46 15.47 129.43 0 258.86 0 0-15.47 0-15.47-121.7 0-243.4 0zm243.4 0q0 0 0 15.47c10.31 0 30.93 0 30.93 0q0-15.47 0-15.47c0 0-20.62 0-30.93 0z"/>
			</g>
		</g>
		<g id="&lt;Group&gt;">
			<g id="&lt;Group&gt;">
				<path id="&lt;Mesh&gt;" class="s2" d="m309.15 93.12q6.67-13.96 6.67-13.96c0 0-18.61-8.89-27.91-13.33q0 0-6.67 13.95c9.31 4.45 27.91 13.34 27.91 13.34zm-27.91-13.34q6.67-13.95 6.67-13.95c-12.94-6.18-26.49-11.05-40.43-14.58q0 0-3.8 14.99c12.98 3.29 25.56 7.81 37.56 13.54zm-37.56-13.54q3.8-14.99 3.8-14.99-0.01-0.01-0.03-0.01 0 0-3.8 14.99 0.02 0 0.03 0.01zm-0.03-0.01q3.8-14.99 3.8-14.99c-15.21-3.83-31.59-5.23-48.13-5.25q0 0 0 15.47c15.64 0.01 30.86 1.37 44.33 4.77zm-44.33-4.77q0-15.47 0-15.47-0.02 0-0.04 0 0 0 0.01 15.47 0.01 0 0.03 0zm-0.03 0q-0.01-15.47-0.01-15.47c-21.64-0.02-42.9 3.97-62.1 12.69q0 0 6.38 14.09c16.99-7.71 35.88-11.32 55.73-11.31zm-55.73 11.31q-6.38-14.09-6.38-14.09-0.01 0.01-0.03 0.02 0 0 6.38 14.09 0.02-0.01 0.03-0.02zm-0.03 0.02q-6.38-14.09-6.38-14.09c-18.48 8.32-34.79 20.65-47.93 36.13q0 0 11.77 10.03c11.77-13.84 26.05-24.63 42.54-32.07zm-42.54 32.07q-11.77-10.03-11.77-10.03-0.02 0.01-0.03 0.03 0 0 11.78 10.03 0.01-0.02 0.02-0.03zm-0.02 0.03q-11.78-10.03-11.78-10.03c-14.09 16.52-24.41 36.32-31.4 57.56q0 0 14.69 4.84c6.49-19.72 15.9-37.62 28.49-52.37zm-28.49 52.37q-14.69-4.84-14.69-4.84 0 0.02-0.01 0.04 0 0 14.69 4.83 0.01-0.02 0.01-0.03zm-0.01 0.03q-14.69-4.83-14.69-4.83c-8.01 24.38-11.27 50.56-11.28 76.94q0 0 15.47 0c0-25.12 3.13-49.66 10.5-72.11zm-10.5 72.11q-15.47 0-15.47 0 0 0.02 0 0.04 0 0 15.47 0 0-0.02 0-0.04zm0 0.04q-15.47 0-15.47 0c0.01 26.33 3.26 52.46 11.28 76.77q0 0 14.68-4.85c-7.38-22.36-10.49-46.85-10.49-71.92zm10.49 71.92q-14.68 4.85-14.68 4.85 0 0.02 0.01 0.03 0 0 14.68-4.85 0-0.02-0.01-0.03zm0.01 0.03q-14.68 4.85-14.68 4.85c6.96 21.08 17.11 40.76 30.99 57.18q0 0 11.81-9.98c-12.37-14.64-21.64-32.44-28.12-52.05zm28.12 52.05q-11.81 9.98-11.81 9.98 0.01 0.01 0.02 0.02 0 0 11.81-9.98-0.01-0.01-0.02-0.02zm0.02 0.02q-11.81 9.98-11.81 9.98c12.8 15.23 28.62 27.42 46.6 35.66q0 0 6.48-14.04c-15.97-7.34-29.78-17.98-41.27-31.6zm41.27 31.6q-6.48 14.04-6.48 14.04 0.02 0.01 0.03 0.02 0 0 6.48-14.05-0.01 0-0.03-0.01zm0.03 0.01q-6.48 14.05-6.48 14.05c18.54 8.59 39.13 12.5 60.15 12.48q0 0 0-15.46c-19.19 0-37.37-3.53-53.67-11.07zm53.67 11.07q0 15.46 0 15.46 0.02 0 0.04 0 0 0-0.01-15.46-0.01 0-0.03 0zm0.03 0q0.01 15.46 0.01 15.46c19.32-0.02 38.48-1.87 55.99-7.08q0 0-4.44-14.81c-15.44 4.61-33.25 6.42-51.56 6.43zm51.56-6.43q4.44 14.81 4.44 14.81 0.02 0 0.03-0.01 0 0-4.43-14.81-0.02 0-0.04 0.01zm0.04-0.01q4.43 14.81 4.43 14.81c15.61-4.67 30.62-10.87 44.61-18.75q0 0-7.59-13.48c-12.9 7.27-26.82 13.04-41.45 17.42zm41.45-17.42q7.59 13.48 7.59 13.48c8.99-5.07 26.95-15.19 26.95-15.19q0 0-7.59-13.47c0 0-17.97 10.12-26.95 15.18zm27.16-293.12q3.33-6.98 6.66-13.96c0 0-18.6-8.89-27.91-13.33q-3.33 6.98-6.66 13.96c9.3 4.44 27.91 13.33 27.91 13.33zm-27.91-13.33q3.33-6.98 6.66-13.96c-13.86-6.62-28.39-11.84-43.29-15.61q-1.9 7.49-3.8 14.99c13.94 3.53 27.49 8.4 40.43 14.58zm-40.43-14.58q1.9-7.5 3.8-14.99-0.01-0.01-0.03-0.01-1.9 7.49-3.8 14.99 0.02 0 0.03 0.01zm-0.03-0.01q1.9-7.5 3.8-14.99c-16.95-4.26-34.49-5.69-51.93-5.72q0 7.73 0 15.46c16.54 0.02 32.92 1.42 48.13 5.25zm-48.13-5.25q0-7.73 0-15.46-0.02 0-0.04 0 0 7.73 0 15.46 0.02 0 0.04 0zm-0.04 0q0-7.73 0-15.46c-23.45-0.04-47.06 4.32-68.47 14.06q3.19 7.05 6.37 14.09c19.2-8.72 40.46-12.71 62.1-12.69zm-62.1 12.69q-3.18-7.04-6.37-14.09-0.02 0.01-0.04 0.02 3.19 7.04 6.38 14.09 0.02-0.01 0.03-0.02zm-0.03 0.02q-3.19-7.05-6.38-14.09c-20.48 9.2-38.82 23.06-53.32 40.19q5.88 5.01 11.77 10.03c13.14-15.48 29.45-27.81 47.93-36.13zm-47.93 36.13q-5.89-5.02-11.77-10.03-0.02 0.01-0.03 0.03 5.89 5.01 11.77 10.03 0.01-0.02 0.03-0.03zm-0.03 0.03q-5.88-5.02-11.77-10.03c-15.6 18.28-26.84 39.99-34.32 62.76q7.35 2.41 14.69 4.83c6.99-21.24 17.31-41.04 31.4-57.56zm-31.4 57.56q-7.34-2.42-14.69-4.83 0 0.02-0.01 0.03 7.35 2.42 14.69 4.84 0.01-0.02 0.01-0.04zm-0.01 0.04q-7.34-2.42-14.69-4.84c-8.64 26.33-12.04 54.14-12.06 81.78q7.74 0 15.47 0c0.01-26.38 3.27-52.56 11.28-76.94zm-11.28 76.94q-7.73 0-15.47 0 0 0.02 0 0.04 7.74 0 15.47 0 0-0.02 0-0.04zm0 0.04q-7.73 0-15.47 0c0.02 27.58 3.4 55.35 12.06 81.62q7.34-2.43 14.69-4.85c-8.02-24.31-11.27-50.44-11.28-76.77zm11.28 76.77q-7.35 2.42-14.69 4.85 0.01 0.02 0.02 0.04 7.34-2.43 14.68-4.86-0.01-0.01-0.01-0.03zm0.01 0.03q-7.34 2.43-14.68 4.86c7.44 22.55 18.47 44.1 33.85 62.29q5.91-4.99 11.82-9.97c-13.88-16.42-24.03-36.1-30.99-57.18zm30.99 57.18q-5.91 4.98-11.82 9.97 0.01 0.02 0.02 0.03 5.91-4.99 11.82-9.98-0.01-0.01-0.02-0.02zm0.02 0.02q-5.91 4.99-11.82 9.98c14.13 16.83 31.95 30.58 51.94 39.72q3.24-7.02 6.48-14.04c-17.98-8.24-33.8-20.43-46.6-35.66zm46.6 35.66q-3.24 7.02-6.48 14.04 0.02 0.01 0.04 0.02 3.23-7.02 6.47-14.04-0.01-0.01-0.03-0.02zm0.03 0.02q-3.24 7.02-6.47 14.04c20.78 9.64 43.78 13.94 66.62 13.91q0-7.73 0-15.47c-21.02 0.02-41.61-3.89-60.15-12.48zm60.15 12.48q0 7.74 0 15.47 0.02 0 0.04 0 0-7.73 0-15.47-0.02 0-0.04 0zm0.04 0q0 7.74 0 15.47c20.34-0.04 40.85-1.93 60.42-7.73q-2.22-7.41-4.43-14.82c-17.51 5.21-36.67 7.06-55.99 7.08zm55.99-7.08q2.21 7.41 4.43 14.82 0.02 0 0.04-0.01-2.22-7.41-4.44-14.82-0.01 0.01-0.03 0.01zm0.03-0.01q2.22 7.41 4.44 14.82c16.58-4.96 32.69-11.6 47.77-20.1q-3.8-6.74-7.6-13.47c-13.99 7.88-29 14.08-44.61 18.75zm44.61-18.75q3.8 6.73 7.6 13.47c8.98-5.06 26.94-15.19 26.94-15.19q-3.79-6.74-7.59-13.47c0 0-17.96 10.12-26.95 15.19zm26.23-320.56q3.33-6.97 6.66-13.95c0 0-18.6-8.89-27.91-13.33q-3.33 6.97-6.66 13.95c9.31 4.44 27.91 13.33 27.91 13.33zm-27.91-13.33q3.33-6.98 6.66-13.95c-14.79-7.07-30.29-12.64-46.14-16.66q-1.9 7.5-3.81 15c14.9 3.77 29.43 8.99 43.29 15.61zm-43.29-15.61q1.91-7.5 3.81-15-0.02 0-0.05-0.01-1.89 7.5-3.79 15 0.02 0 0.03 0.01zm-0.03-0.01q1.9-7.5 3.79-15c-18.69-4.68-37.38-6.15-55.72-6.19q0 7.74 0 15.47c17.44 0.03 34.98 1.46 51.93 5.72zm-51.93-5.72q0-7.73 0-15.47-0.02 0-0.04 0 0 7.74 0 15.47 0.02 0 0.04 0zm-0.04 0q0-7.73 0-15.47c-25.26-0.05-51.23 4.69-74.85 15.44q3.19 7.05 6.38 14.09c21.41-9.74 45.02-14.1 68.47-14.06zm-68.47 14.06q-3.19-7.04-6.38-14.09-0.02 0.01-0.04 0.02 3.19 7.05 6.38 14.09 0.02-0.01 0.04-0.02zm-0.04 0.02q-3.19-7.04-6.38-14.09c-11.21 5.08-21.96 11.39-31.84 18.86-9.89 7.45-18.91 16.03-26.88 25.39q5.89 5.01 11.78 10.03c14.5-17.13 32.84-30.99 53.32-40.19zm-53.32 40.19q-5.89-5.02-11.78-10.03-0.01 0.01-0.02 0.03 5.88 5.01 11.77 10.03 0.01-0.02 0.03-0.03zm-0.03 0.03q-5.89-5.02-11.77-10.03c-17.11 20.05-29.26 43.66-37.24 67.95q7.35 2.42 14.69 4.84c7.48-22.77 18.72-44.48 34.32-62.76zm-34.32 62.76q-7.34-2.42-14.69-4.84 0 0.02-0.01 0.04 7.35 2.42 14.69 4.83 0.01-0.01 0.01-0.03zm-0.01 0.03q-7.34-2.41-14.69-4.83c-9.28 28.27-12.81 57.72-12.83 86.61q7.73 0 15.46 0c0.02-27.64 3.42-55.45 12.06-81.78zm-12.06 81.78q-7.73 0-15.46 0 0 0.02 0 0.04 7.73 0 15.46 0 0-0.02 0-0.04zm0 0.04q-7.73 0-15.46 0c0.02 28.84 3.53 58.25 12.84 86.47q7.34-2.42 14.68-4.85c-8.66-26.27-12.04-54.04-12.06-81.62zm12.06 81.62q-7.34 2.43-14.68 4.85 0 0.02 0.01 0.04 7.34-2.42 14.69-4.85-0.01-0.02-0.02-0.04zm0.02 0.04q-7.35 2.43-14.69 4.85c7.92 24.02 19.84 47.45 36.72 67.42q5.91-4.99 11.82-9.98c-15.38-18.19-26.41-39.74-33.85-62.29zm33.85 62.29q-5.91 4.99-11.82 9.98 0.02 0.02 0.03 0.03 5.91-4.99 11.81-9.98-0.01-0.01-0.02-0.03zm0.02 0.03q-5.9 4.99-11.81 9.98c15.45 18.43 35.26 33.74 57.27 43.79q3.24-7.02 6.48-14.05c-19.99-9.14-37.81-22.89-51.94-39.72zm51.94 39.72q-3.24 7.03-6.48 14.05 0.02 0.01 0.04 0.01 3.24-7.02 6.48-14.04-0.02-0.01-0.04-0.02zm0.04 0.02q-3.24 7.02-6.48 14.04c11.49 5.31 23.63 9.21 35.94 11.71 12.32 2.5 24.8 3.62 37.16 3.62q0-7.73 0-15.46c-22.84 0.03-45.84-4.27-66.62-13.91zm66.62 13.91q0 7.73 0 15.46 0.02 0 0.04 0 0-7.73 0-15.46-0.02 0-0.04 0zm0.04 0q0 7.73 0 15.46c21.36-0.05 43.22-1.97 64.86-8.37q-2.22-7.41-4.44-14.82c-19.57 5.8-40.08 7.69-60.42 7.73zm60.42-7.73q2.22 7.41 4.44 14.82 0.02-0.01 0.04-0.02-2.22-7.4-4.44-14.81-0.02 0.01-0.04 0.01zm0.04-0.01q2.22 7.41 4.44 14.81c17.55-5.25 34.75-12.32 50.92-21.44q-3.79-6.73-7.59-13.47c-15.08 8.5-31.19 15.14-47.77 20.1zm47.77-20.1q3.8 6.74 7.59 13.47c8.99-5.06 26.95-15.19 26.95-15.19q-3.8-6.73-7.6-13.47c0 0-17.96 10.13-26.94 15.19zm25.29-347.98q0 0 6.67-13.96c0 0-18.61-8.89-27.91-13.33q-6.67 13.96-6.67 13.96c9.31 4.44 27.91 13.33 27.91 13.33zm-27.91-13.33q0 0 6.67-13.96c-15.73-7.51-32.2-13.43-49.01-17.69q-3.8 14.99-3.8 14.99c15.85 4.02 31.35 9.59 46.14 16.66zm-46.14-16.66q0 0 3.8-14.99-0.03 0-0.05-0.01-3.8 14.99-3.8 14.99 0.03 0.01 0.05 0.01zm-0.05-0.01q0 0 3.8-14.99c-20.43-5.11-40.28-6.61-59.51-6.66q-0.01 15.46-0.01 15.46c18.34 0.04 37.03 1.51 55.72 6.19zm-55.72-6.19q0 0 0.01-15.46-0.03 0-0.05 0 0 15.46 0 15.46 0.02 0 0.04 0zm-0.04 0q0 0 0-15.46c-13.56 0-27.37 1.22-41.07 3.96-13.69 2.73-27.26 7.02-40.16 12.85q6.38 14.09 6.38 14.09c23.62-10.75 49.59-15.49 74.85-15.44zm-74.85 15.44q0 0-6.38-14.09-0.02 0.01-0.04 0.02 6.38 14.09 6.38 14.09 0.02-0.01 0.04-0.02zm-31.88 18.88c9.88-7.47 20.63-13.78 31.84-18.86q0 0-6.38-14.09c-12.21 5.53-23.96 12.44-34.77 20.6-10.82 8.15-20.67 17.53-29.34 27.7q11.77 10.04 11.77 10.04c7.97-9.36 16.99-17.94 26.88-25.39zm-26.88 25.39q0 0-11.77-10.04-0.01 0.02-0.03 0.04 11.78 10.03 11.78 10.03 0.01-0.02 0.02-0.03zm-0.02 0.03q0 0-11.78-10.03c-18.61 21.81-31.68 47.33-40.15 73.14q14.69 4.84 14.69 4.84c7.98-24.29 20.13-47.9 37.24-67.95zm-37.24 67.95q0 0-14.69-4.84 0 0.03-0.01 0.05 14.69 4.83 14.69 4.83 0.01-0.02 0.01-0.04zm-0.01 0.04q0 0-14.69-4.83c-9.91 30.2-13.59 61.29-13.61 91.44q15.47 0 15.47 0c0.02-28.89 3.55-58.34 12.83-86.61zm-12.83 86.61q0 0-15.47 0 0 0.02 0 0.04 15.47 0 15.47 0 0-0.02 0-0.04zm0 0.04q0 0-15.47 0c0.03 30.09 3.68 61.14 13.62 91.32q14.69-4.85 14.69-4.85c-9.31-28.22-12.82-57.63-12.84-86.47zm12.84 86.47q0 0-14.69 4.85 0.01 0.03 0.02 0.05 14.68-4.86 14.68-4.86-0.01-0.02-0.01-0.04zm0.01 0.04q0 0-14.68 4.86c8.4 25.48 21.2 50.8 39.58 72.53q11.82-9.97 11.82-9.97c-16.88-19.97-28.8-43.4-36.72-67.42zm36.72 67.42q0 0-11.82 9.97 0.02 0.02 0.03 0.04 11.82-9.98 11.82-9.98-0.01-0.01-0.03-0.03zm0.03 0.03q0 0-11.82 9.98c8.43 9.98 18.02 19.25 28.58 27.34 10.55 8.09 22.06 14.99 34.03 20.51q6.48-14.04 6.48-14.04c-22.01-10.05-41.82-25.36-57.27-43.79zm57.27 43.79q0 0-6.48 14.04 0.02 0.01 0.04 0.02 6.48-14.05 6.48-14.05-0.02 0-0.04-0.01zm35.98 11.72c-12.31-2.5-24.45-6.4-35.94-11.71q0 0-6.48 14.05c12.6 5.82 25.92 10.09 39.34 12.81 13.43 2.73 26.96 3.93 40.23 3.94q0.01-15.47 0.01-15.47c-12.36 0-24.84-1.12-37.16-3.62zm37.16 3.62q0 0-0.01 15.47 0.03 0 0.05 0 0-15.47 0-15.47-0.02 0-0.04 0zm0.04 0q0 0 0 15.47c22.38-0.07 45.59-2.03 69.29-9.03q-4.43-14.81-4.43-14.81c-21.64 6.4-43.5 8.32-64.86 8.37zm64.86-8.37q0 0 4.43 14.81 0.02 0 0.04-0.01-4.43-14.82-4.43-14.82-0.02 0.01-0.04 0.02zm0.04-0.02q0 0 4.43 14.82c18.53-5.54 36.82-13.05 54.09-22.78q-7.6-13.48-7.6-13.48c-16.17 9.12-33.37 16.19-50.92 21.44zm50.92-21.44q0 0 7.6 13.48c8.98-5.07 26.94-15.2 26.94-15.2q-7.59-13.47-7.59-13.47c0 0-17.96 10.13-26.95 15.19z"/>
			</g>
		</g>
	</g>
</svg>