<svg width="54" height="55" viewBox="0 0 54 55" fill="none" xmlns="http://www.w3.org/2000/svg">
<g clip-path="url(#clip0_47_76)">
<path d="M5.81825 0.426758C2.82638 0.426758 0.41626 2.90202 0.41626 5.97475V48.6516C0.41626 51.7243 2.82638 54.1996 5.81825 54.1996H47.372C50.3639 54.1996 52.774 51.7243 52.774 48.6516V5.97475C52.774 2.90202 50.3639 0.426758 47.372 0.426758H5.81825ZM5.81825 2.98737H47.372C48.9926 2.98737 50.2808 4.31035 50.2808 5.97475V12.3763H2.90949V5.97475C2.90949 4.31035 4.19765 2.98737 5.81825 2.98737ZM7.4804 6.40152C6.77399 6.40152 6.23379 6.95632 6.23379 7.68182C6.23379 8.40733 6.77399 8.96213 7.4804 8.96213H9.14256C9.84897 8.96213 10.3892 8.40733 10.3892 7.68182C10.3892 6.95632 9.84897 6.40152 9.14256 6.40152H7.4804ZM14.129 6.40152C13.4226 6.40152 12.8824 6.95632 12.8824 7.68182C12.8824 8.40733 13.4226 8.96213 14.129 8.96213H15.7912C16.4976 8.96213 17.0378 8.40733 17.0378 7.68182C17.0378 6.95632 16.4976 6.40152 15.7912 6.40152H14.129ZM2.90949 14.9369H50.2808V48.6516C50.2808 50.316 48.9926 51.639 47.372 51.639H5.81825C4.19765 51.639 2.90949 50.316 2.90949 48.6516V14.9369ZM15.9718 12.5989C15.2654 12.5989 14.7252 13.1537 14.7252 13.8792V52.6966C14.7252 53.4221 15.2654 53.9769 15.9718 53.9769C16.6782 53.9769 17.2184 53.4221 17.2184 52.6966V13.8792C17.2184 13.1537 16.6782 12.5989 15.9718 12.5989Z" fill="#0D6EFD"/>
<path d="M24.9382 22.9075H43.4477" stroke="#0D6EFD" stroke-width="3.85496" stroke-linecap="round"/>
<path d="M24.9382 31.1316H43.4477" stroke="#0D6EFD" stroke-width="3.85496" stroke-linecap="round"/>
</g>
<defs>
<clipPath id="clip0_47_76">
<rect width="53.1888" height="54.6264" fill="white"/>
</clipPath>
</defs>
</svg>
