<svg fill="#0D6EFD" height="200px" width="200px" version="1.1" id="Layer_1" xmlns="http://www.w3.org/2000/svg" xmlns:xlink="http://www.w3.org/1999/xlink" viewBox="0 0 512 512" xml:space="preserve"><g id="SVGRepo_bgCarrier" stroke-width="0"></g><g id="SVGRepo_tracerCarrier" stroke-linecap="round" stroke-linejoin="round"></g><g id="SVGRepo_iconCarrier"> <g> <g> <path d="M490.667,0H21.333C9.552,0,0,9.551,0,21.333v469.333C0,502.449,9.552,512,21.333,512h469.333 c11.782,0,21.333-9.551,21.333-21.333V21.333C512,9.551,502.45,0,490.667,0z M469.334,469.333L469.334,469.333H42.667V42.667 h426.667V469.333z"></path> </g> </g> <g> <g> <path d="M234.667,362.667h-128c-11.782,0-21.333,9.551-21.333,21.333c-0.001,11.782,9.551,21.333,21.333,21.333h128 c11.782,0,21.333-9.551,21.333-21.333C256,372.218,246.45,362.667,234.667,362.667z"></path> </g> </g> <g> <g> <path d="M405.333,362.667H320c-11.782,0-21.333,9.551-21.333,21.333c0,11.782,9.551,21.333,21.333,21.333h85.333 c11.782,0,21.333-9.551,21.333-21.333C426.667,372.218,417.115,362.667,405.333,362.667z"></path> </g> </g> <g> <g> <path d="M405.333,277.333H170.667c-11.782,0-21.333,9.551-21.333,21.333c0,11.782,9.551,21.333,21.333,21.333h234.667 c11.782,0,21.333-9.551,21.333-21.333C426.667,286.885,417.115,277.333,405.333,277.333z"></path> </g> </g> <g> <g> <path d="M405.333,192.001h-128C265.552,192,256,201.551,256,213.333c0,11.782,9.551,21.334,21.333,21.334h128 c11.782,0,21.333-9.551,21.333-21.333C426.667,201.552,417.116,192.001,405.333,192.001z"></path> </g> </g> <g> <g> <path d="M405.333,106.667h-128C265.552,106.667,256,116.218,256,128s9.551,21.333,21.333,21.333h128 c11.782,0,21.333-9.551,21.333-21.333S417.116,106.667,405.333,106.667z"></path> </g> </g> <g> <g> <path d="M213.333,106.667C201.552,106.667,192,116.218,192,128v85.333c0,11.782,9.551,21.334,21.333,21.334 s21.333-9.551,21.333-21.333V128C234.667,116.218,225.115,106.667,213.333,106.667z"></path> </g> </g> <g> <g> <path d="M164.419,155.581l-42.667-42.667c-8.331-8.331-21.839-8.331-30.17,0s-8.331,21.839,0,30.17l27.582,27.582l-27.582,27.582 c-8.331,8.332-8.331,21.839,0,30.17c8.331,8.331,21.839,8.331,30.17,0l42.667-42.667 C172.75,177.42,172.75,163.912,164.419,155.581z"></path> </g> </g> </g></svg>